HIERARCHY
ROOT Hips
{
	OFFSET 0.000000 71.427986 0.000000
	CHANNELS 6 Xposition Yposition Zposition Xrotation Yrotation Zrotation
	JOINT Pelvis
	{
		OFFSET 0.000000 0.000000 0.000000
		CHANNELS 3 Xrotation Yrotation Zrotation
		JOINT LeftUpLeg
		{
			OFFSET 6.797100 -2.508499 -1.318700
			CHANNELS 3 Xrotation Yrotation Zrotation
			JOINT LeftLeg
			{
				OFFSET 0.069008 -29.241863 0.690200
				CHANNELS 3 Xrotation Yrotation Zrotation
				JOINT LeftFoot
				{
					OFFSET -0.069008 -29.568123 -0.266800
					CHANNELS 3 Xrotation Yrotation Zrotation
					JOINT LeftToeBase
					{
						OFFSET 3.145500 -8.631000 16.059900
						CHANNELS 3 Xrotation Yrotation Zrotation
						End Site
						{
							OFFSET 0.000000 18.501587 0.000000
						}
					}
				}
			}
			JOINT Left_ShortSleeve
			{
				OFFSET 0.265923 -10.480953 1.153800
				CHANNELS 3 Xrotation Yrotation Zrotation
				End Site
				{
					OFFSET 1.725763 19.823879 0.000000
				}
			}
		}
		JOINT RightUpLeg
		{
			OFFSET -6.797100 -2.508499 -1.318700
			CHANNELS 3 Xrotation Yrotation Zrotation
			JOINT RightLeg
			{
				OFFSET -0.082453 -29.241932 0.688000
				CHANNELS 3 Xrotation Yrotation Zrotation
				JOINT RightFoot
				{
					OFFSET 0.082453 -29.568058 -0.264600
					CHANNELS 3 Xrotation Yrotation Zrotation
					JOINT RightToeBase
					{
						OFFSET -3.115300 -8.682800 16.113400
						CHANNELS 3 Xrotation Yrotation Zrotation
						End Site
						{
							OFFSET 0.000000 18.567114 0.000000
						}
					}
				}
			}
			JOINT Right_ShortSleeve
			{
				OFFSET -0.265923 -10.480953 1.153800
				CHANNELS 3 Xrotation Yrotation Zrotation
				End Site
				{
					OFFSET -1.725766 19.823910 0.000000
				}
			}
		}
	}
	JOINT Spine
	{
		OFFSET 0.000000 13.368103 0.470500
		CHANNELS 3 Xrotation Yrotation Zrotation
		JOINT Spine1
		{
			OFFSET 0.147000 13.837402 0.538800
			CHANNELS 3 Xrotation Yrotation Zrotation
			JOINT Spine2
			{
				OFFSET 0.168000 16.242897 -1.435500
				CHANNELS 3 Xrotation Yrotation Zrotation
				JOINT Neck
				{
					OFFSET 0.217200 18.631500 -1.679100
					CHANNELS 3 Xrotation Yrotation Zrotation
					JOINT Head
					{
						OFFSET 0.000000 6.599396 1.385900
						CHANNELS 3 Xrotation Yrotation Zrotation
						JOINT Hat
						{
							OFFSET -0.532200 27.220596 -10.096100
							CHANNELS 3 Xrotation Yrotation Zrotation
							End Site
							{
								OFFSET 0.000000 22.029861 0.000000
							}
						}
						JOINT HairD
						{
							OFFSET -10.777400 17.437393 -1.325900
							CHANNELS 3 Xrotation Yrotation Zrotation
							JOINT HairD1
							{
								OFFSET -3.290299 -11.051193 1.062200
								CHANNELS 3 Xrotation Yrotation Zrotation
								End Site
								{
									OFFSET 0.000000 11.579437 0.000000
								}
							}
						}
						JOINT HairB
						{
							OFFSET -10.777400 17.437393 1.467900
							CHANNELS 3 Xrotation Yrotation Zrotation
							JOINT HairB1
							{
								OFFSET -1.561200 -12.956299 3.590200
								CHANNELS 3 Xrotation Yrotation Zrotation
								End Site
								{
									OFFSET 0.000000 13.534866 0.000000
								}
							}
						}
						JOINT HairA
						{
							OFFSET 9.713100 17.437393 1.467900
							CHANNELS 3 Xrotation Yrotation Zrotation
							JOINT HairA1
							{
								OFFSET 1.561200 -12.956299 3.590200
								CHANNELS 3 Xrotation Yrotation Zrotation
								End Site
								{
									OFFSET 0.000000 13.534866 0.000000
								}
							}
						}
						JOINT HairC
						{
							OFFSET 9.713100 17.437393 -1.325900
							CHANNELS 3 Xrotation Yrotation Zrotation
							JOINT HairC1
							{
								OFFSET 3.290300 -11.051193 1.062200
								CHANNELS 3 Xrotation Yrotation Zrotation
								End Site
								{
									OFFSET 0.000000 11.579437 0.000000
								}
							}
						}
					}
				}
				JOINT LeftShoulder
				{
					OFFSET 5.101800 15.108002 -2.763700
					CHANNELS 3 Xrotation Yrotation Zrotation
					JOINT LeftArm
					{
						OFFSET 9.825497 2.506317 -1.597400
						CHANNELS 3 Xrotation Yrotation Zrotation
						JOINT LeftForeArm
						{
							OFFSET 21.966244 0.000000 0.000000
							CHANNELS 3 Xrotation Yrotation Zrotation
							JOINT LeftHand
							{
								OFFSET 33.879036 0.000000 0.000000
								CHANNELS 3 Xrotation Yrotation Zrotation
								JOINT LeftHandThumb1
								{
									OFFSET 6.715286 -2.359680 3.363841
									CHANNELS 3 Xrotation Yrotation Zrotation
									JOINT LeftHandThumb2
									{
										OFFSET 2.507072 -1.447464 1.447461
										CHANNELS 3 Xrotation Yrotation Zrotation
										JOINT LeftHandThumb3
										{
											OFFSET 2.898338 -1.673355 1.673357
											CHANNELS 3 Xrotation Yrotation Zrotation
											End Site
											{
												OFFSET -0.295959 3.727692 -0.131651
											}
										}
									}
								}
								JOINT LeftHandIndex1
								{
									OFFSET 14.190811 -0.254547 3.840278
									CHANNELS 3 Xrotation Yrotation Zrotation
									JOINT LeftHandIndex2
									{
										OFFSET 3.551727 0.000000 -0.000000
										CHANNELS 3 Xrotation Yrotation Zrotation
										JOINT LeftHandIndex3
										{
											OFFSET 2.894196 0.000000 0.000000
											CHANNELS 3 Xrotation Yrotation Zrotation
											End Site
											{
												OFFSET -1.000603 2.690872 0.366626
											}
										}
									}
								}
								JOINT LeftHandMiddle1
								{
									OFFSET 13.776489 0.000000 0.000000
									CHANNELS 3 Xrotation Yrotation Zrotation
									JOINT LeftHandMiddle2
									{
										OFFSET 3.438232 0.000000 0.000000
										CHANNELS 3 Xrotation Yrotation Zrotation
										JOINT LeftHandMiddle3
										{
											OFFSET 3.691551 0.000000 0.000000
											CHANNELS 3 Xrotation Yrotation Zrotation
											End Site
											{
												OFFSET -1.082298 3.499527 0.457670
											}
										}
									}
								}
								JOINT LeftHandRing1
								{
									OFFSET 13.966164 -0.268127 -3.067488
									CHANNELS 3 Xrotation Yrotation Zrotation
									JOINT LeftHandRing2
									{
										OFFSET 3.162567 0.000000 0.000000
										CHANNELS 3 Xrotation Yrotation Zrotation
										JOINT LeftHandRing3
										{
											OFFSET 3.324348 0.000000 0.000000
											CHANNELS 3 Xrotation Yrotation Zrotation
											End Site
											{
												OFFSET -0.861900 3.184998 0.405154
											}
										}
									}
								}
								JOINT LeftHandPinky1
								{
									OFFSET 13.131393 -0.168503 -5.746925
									CHANNELS 3 Xrotation Yrotation Zrotation
									JOINT LeftHandPinky2
									{
										OFFSET 2.849182 0.000000 0.000000
										CHANNELS 3 Xrotation Yrotation Zrotation
										JOINT LeftHandPinky3
										{
											OFFSET 2.805038 0.000000 0.000000
											CHANNELS 3 Xrotation Yrotation Zrotation
											End Site
											{
												OFFSET -0.882500 2.642609 0.325652
											}
										}
									}
								}
							}
							JOINT Left_Sleeve
							{
								OFFSET 6.592125 -0.646545 0.805568
								CHANNELS 3 Xrotation Yrotation Zrotation
								End Site
								{
									OFFSET -0.000179 20.275787 -0.000000
								}
							}
						}
					}
				}
				JOINT RightShoulder
				{
					OFFSET -5.731700 15.108002 -2.763700
					CHANNELS 3 Xrotation Yrotation Zrotation
					JOINT RightArm
					{
						OFFSET -9.825497 2.506317 -1.597400
						CHANNELS 3 Xrotation Yrotation Zrotation
						JOINT RightForeArm
						{
							OFFSET -21.966242 0.000000 0.000000
							CHANNELS 3 Xrotation Yrotation Zrotation
							JOINT RightHand
							{
								OFFSET -33.879032 0.000000 0.000000
								CHANNELS 3 Xrotation Yrotation Zrotation
								JOINT RightHandThumb1
								{
									OFFSET -6.715286 -2.359680 3.363841
									CHANNELS 3 Xrotation Yrotation Zrotation
									JOINT RightHandThumb2
									{
										OFFSET -2.507072 -1.447464 1.447461
										CHANNELS 3 Xrotation Yrotation Zrotation
										JOINT RightHandThumb3
										{
											OFFSET -2.898338 -1.673355 1.673357
											CHANNELS 3 Xrotation Yrotation Zrotation
											End Site
											{
												OFFSET 0.295959 3.727692 -0.131651
											}
										}
									}
								}
								JOINT RightHandIndex1
								{
									OFFSET -14.190811 -0.254547 3.840278
									CHANNELS 3 Xrotation Yrotation Zrotation
									JOINT RightHandIndex2
									{
										OFFSET -3.551727 0.000000 -0.000000
										CHANNELS 3 Xrotation Yrotation Zrotation
										JOINT RightHandIndex3
										{
											OFFSET -2.894196 0.000000 0.000000
											CHANNELS 3 Xrotation Yrotation Zrotation
											End Site
											{
												OFFSET 1.000603 2.690872 0.366626
											}
										}
									}
								}
								JOINT RightHandMiddle1
								{
									OFFSET -13.776489 0.000000 0.000000
									CHANNELS 3 Xrotation Yrotation Zrotation
									JOINT RightHandMiddle2
									{
										OFFSET -3.438232 0.000000 0.000000
										CHANNELS 3 Xrotation Yrotation Zrotation
										JOINT RightHandMiddle3
										{
											OFFSET -3.691551 0.000000 0.000000
											CHANNELS 3 Xrotation Yrotation Zrotation
											End Site
											{
												OFFSET 1.082298 3.499527 0.457670
											}
										}
									}
								}
								JOINT RightHandRing1
								{
									OFFSET -13.966164 -0.268127 -3.067488
									CHANNELS 3 Xrotation Yrotation Zrotation
									JOINT RightHandRing2
									{
										OFFSET -3.162567 0.000000 0.000000
										CHANNELS 3 Xrotation Yrotation Zrotation
										JOINT RightHandRing3
										{
											OFFSET -3.324348 0.000000 0.000000
											CHANNELS 3 Xrotation Yrotation Zrotation
											End Site
											{
												OFFSET 0.861900 3.184998 0.405154
											}
										}
									}
								}
								JOINT RightHandPinky1
								{
									OFFSET -13.131393 -0.168503 -5.746925
									CHANNELS 3 Xrotation Yrotation Zrotation
									JOINT RightHandPinky2
									{
										OFFSET -2.849182 0.000000 0.000000
										CHANNELS 3 Xrotation Yrotation Zrotation
										JOINT RightHandPinky3
										{
											OFFSET -2.805038 0.000000 0.000000
											CHANNELS 3 Xrotation Yrotation Zrotation
											End Site
											{
												OFFSET 0.882500 2.642609 0.325652
											}
										}
									}
								}
							}
							JOINT Right_Sleeve
							{
								OFFSET -6.592125 -0.646545 0.805568
								CHANNELS 3 Xrotation Yrotation Zrotation
								End Site
								{
									OFFSET 0.000179 20.275787 -0.000000
								}
							}
						}
					}
				}
				JOINT Bind_Right_JacketString
				{
					OFFSET -3.534800 11.969597 7.200700
					CHANNELS 3 Xrotation Yrotation Zrotation
					JOINT Bind_Right_JacketString1
					{
						OFFSET -0.319900 -6.102600 2.794100
						CHANNELS 3 Xrotation Yrotation Zrotation
						End Site
						{
							OFFSET 0.000000 6.719452 0.000000
						}
					}
				}
				JOINT Bind_Left_JacketString
				{
					OFFSET 2.904800 11.969597 7.200700
					CHANNELS 3 Xrotation Yrotation Zrotation
					JOINT Bind_Left_JacketString1
					{
						OFFSET 0.364800 -5.904503 3.186800
						CHANNELS 3 Xrotation Yrotation Zrotation
						End Site
						{
							OFFSET 0.000000 6.719513 0.000000
						}
					}
				}
				JOINT HairE
				{
					OFFSET 5.915200 17.612701 -11.592200
					CHANNELS 3 Xrotation Yrotation Zrotation
					JOINT HairE1
					{
						OFFSET 0.289200 -7.171898 -1.284500
						CHANNELS 3 Xrotation Yrotation Zrotation
						End Site
						{
							OFFSET 0.000000 7.291756 0.000000
						}
					}
				}
				JOINT HairF
				{
					OFFSET -0.864800 17.612701 -11.592200
					CHANNELS 3 Xrotation Yrotation Zrotation
					JOINT HairF1
					{
						OFFSET 0.000000 -14.087097 -2.127501
						CHANNELS 3 Xrotation Yrotation Zrotation
						End Site
						{
							OFFSET 0.000000 14.246841 0.000000
						}
					}
				}
				JOINT HairG
				{
					OFFSET -8.087700 17.612701 -11.592200
					CHANNELS 3 Xrotation Yrotation Zrotation
					JOINT HairG1
					{
						OFFSET -0.293600 -6.081398 -0.910100
						CHANNELS 3 Xrotation Yrotation Zrotation
						End Site
						{
							OFFSET 0.000000 6.156120 0.000000
						}
					}
				}
			}
		}
	}
	JOINT Pouch
	{
		OFFSET 0.000000 4.394501 10.847300
		CHANNELS 3 Xrotation Yrotation Zrotation
		End Site
		{
			OFFSET 0.000000 21.880577 0.000000
		}
	}
	JOINT Bag
	{
		OFFSET -13.229000 4.813004 -0.593300
		CHANNELS 3 Xrotation Yrotation Zrotation
		End Site
		{
			OFFSET 0.000000 21.880577 0.000000
		}
	}
	JOINT OccupyGuyFacialAnim_Joint
	{
		OFFSET 1.000000 -70.206398 -1.655000
		CHANNELS 3 Xrotation Yrotation Zrotation
		End Site
		{
			OFFSET 0.000000 21.880577 0.000000
		}
	}
}
MOTION
Frames: 4
Frame Time: 0.033333
-0.184252 70.913124 1.292395 -3.747846 -5.217043 -3.475016 -0.000000 0.000000 0.000000 -8.979692 15.118899 9.858873 13.251796 1.945917 4.199742 -1.497255 0.714322 -7.482556 0.000000 -0.000000 -0.000000 0.000001 0.000002 0.000000 3.970088 -10.246108 4.206378 5.930102 -9.783553 -3.276156 -5.622805 -1.660108 3.139573 0.000000 -0.000000 -0.000000 -0.000000 -0.000001 0.000000 3.306716 1.520379 2.433584 1.187750 0.293759 1.525121 1.153386 0.335161 1.513963 5.622654 -0.077914 0.460142 -7.551052 1.374407 -0.092884 0.000000 -0.000000 0.000000 0.000000 -0.000000 0.000000 0.000000 -0.000000 0.000000 0.000000 -0.000000 0.000000 0.000000 -0.000000 0.000000 0.000000 -0.000000 0.000000 0.000000 -0.000000 0.000000 0.000000 -0.000000 0.000000 0.000000 -0.000000 0.000000 1.037792 -17.443917 -12.318332 3.910664 -19.989083 -69.767650 -0.000000 -1.458935 0.000002 -33.228146 -1.359281 -6.190282 -0.682399 2.158992 4.816943 11.855112 25.403570 17.028063 0.000001 0.000001 -0.000001 -0.404146 -0.887103 -7.560898 0.268726 1.755614 -17.403624 0.000001 -0.000000 -0.000002 -0.075144 2.669732 -15.694072 0.268656 1.755397 -17.401413 0.000002 0.000001 0.000003 0.139965 3.649556 -21.130519 0.386430 2.094284 -20.906613 -0.000000 0.000000 -0.000003 0.965681 5.529488 -27.127245 0.268695 1.755516 -17.402559 -0.000001 -0.000001 0.000003 -0.000001 -0.000000 -0.000001 1.191996 15.328835 14.707381 13.168272 27.549182 58.767214 0.000004 6.691895 -0.000014 -20.174746 -0.523583 6.792887 -1.678817 -0.168603 -4.202768 12.711160 -29.838078 -16.123596 -0.000000 -0.000001 0.000000 -0.391331 1.219217 6.807392 0.214624 -1.398896 17.443931 0.000002 -0.000001 0.000002 -0.125561 -2.244848 14.995952 0.214472 -1.398408 17.437705 0.000001 0.000000 -0.000001 0.032028 -3.080100 20.463653 0.308437 -1.668278 20.948537 0.000002 0.000001 0.000001 0.790114 -4.865180 26.475283 0.214437 -1.398319 17.436491 0.000001 0.000000 0.000002 -0.000001 -0.000000 0.000000 -0.000000 0.000000 -0.000000 0.000000 0.000000 -0.000000 -0.000000 0.000000 -0.000000 -0.000000 0.000000 -0.000000 -0.000000 0.000000 -0.000000 0.000000 0.000000 -0.000000 -0.000000 0.000000 -0.000000 -0.000000 0.000000 -0.000000 -0.000000 0.000000 -0.000000 0.000000 0.000000 -0.000000 -0.000000 0.000000 0.000000 -0.000000 0.000000 0.000000 -0.000000 0.000000 0.000000 
-0.184253 70.913124 1.292394 -3.747845 -5.217044 -3.475021 -0.000000 0.000000 0.000000 -8.979454 15.116496 9.858817 13.252176 1.948336 4.199236 -1.497429 0.714340 -7.482622 0.000000 -0.000000 -0.000000 -0.000001 -0.000000 -0.000000 3.970452 -10.246824 4.206182 5.929509 -9.783655 -3.275614 -5.622500 -1.660079 3.139254 -0.000000 0.000000 0.000000 -0.000000 0.000000 -0.000000 3.306716 1.520381 2.433588 1.187750 0.293759 1.525121 1.153386 0.335161 1.513962 5.652508 -0.111490 0.460142 -7.473686 1.315275 -0.097313 -0.000000 0.000000 -0.000000 -0.000000 0.000000 -0.000000 -0.000000 0.000000 -0.000000 -0.000000 0.000000 -0.000000 0.000000 0.000000 0.000000 -0.000000 0.000000 -0.000000 0.000000 0.000000 0.000000 -0.000000 0.000000 -0.000000 -0.000000 0.000000 -0.000000 1.039163 -17.435016 -12.319989 3.912155 -19.988789 -69.763258 -0.000001 -1.458938 -0.000008 -33.204900 -1.363944 -6.189516 -0.682404 2.158989 4.816911 11.855114 25.403565 17.028075 0.000003 0.000001 -0.000001 -0.404147 -0.887103 -7.560903 0.268725 1.755613 -17.403648 0.000003 0.000000 -0.000002 -0.075142 2.669730 -15.694069 0.268656 1.755397 -17.401387 0.000001 -0.000000 -0.000001 0.139967 3.649554 -21.130534 0.386428 2.094286 -20.906623 0.000000 -0.000000 -0.000004 0.965687 5.529487 -27.127245 0.268695 1.755513 -17.402567 -0.000000 0.000000 0.000003 0.000001 -0.000000 0.000000 1.190324 15.328963 14.713706 13.137408 27.509046 58.779624 -0.000003 6.698147 0.000006 -20.042840 -0.479439 6.830485 -1.678816 -0.168612 -4.202796 12.703658 -29.807427 -16.120034 0.000001 0.000003 0.000002 -0.389848 1.221389 6.783017 0.214243 -1.397680 17.428430 0.000000 -0.000001 -0.000002 -0.125557 -2.242566 14.968836 0.214087 -1.397183 17.421945 0.000000 -0.000001 -0.000001 0.033642 -3.082925 20.428910 0.307894 -1.666842 20.929604 0.000001 -0.000001 -0.000000 0.794715 -4.875182 26.440277 0.214051 -1.397097 17.420722 -0.000000 0.000002 0.000001 -0.000000 0.000000 0.000000 -0.000000 0.000000 -0.000000 -0.000000 0.000000 -0.000000 -0.000000 0.000000 -0.000000 -0.000000 0.000000 -0.000000 -0.000000 0.000000 -0.000000 -0.000000 0.000000 -0.000000 -0.000000 0.000000 -0.000000 -0.000000 0.000000 -0.000000 -0.000000 0.000000 -0.000000 -0.000000 0.000000 -0.000000 -0.000000 0.000000 0.000000 -0.000000 0.000000 0.000000 -0.000000 0.000000 0.000000 
-0.198717 70.909775 1.302912 -3.747858 -5.217239 -3.430270 0.000000 0.000000 -0.000000 -8.907391 15.081006 9.789402 13.187659 2.018888 4.234955 -1.479837 0.715519 -7.510488 0.000000 -0.000000 0.000000 -0.000000 0.000001 0.000000 3.881036 -10.286710 4.146890 6.141491 -9.769348 -3.264293 -5.750919 -1.657770 3.147015 -0.000000 -0.000000 -0.000000 -0.000000 -0.000000 -0.000000 3.310918 1.520314 2.428952 1.187750 0.293760 1.525121 1.153386 0.335163 1.513963 5.738273 -0.210057 0.449355 -7.196773 1.109668 -0.122159 -0.000000 -0.000000 0.000000 -0.000000 -0.000000 0.000000 -0.000000 -0.000000 0.000000 -0.000000 -0.000000 0.000000 -0.000000 -0.000000 0.000000 -0.000000 -0.000000 0.000000 -0.000000 -0.000000 0.000000 -0.000000 -0.000000 0.000000 -0.000000 -0.000000 0.000000 1.040289 -17.397284 -12.342814 3.893822 -19.969409 -69.754762 -0.000003 -1.418677 -0.000008 -33.127145 -1.385764 -6.172791 -0.683188 2.149067 4.814955 11.855840 25.398864 17.027131 0.000003 0.000001 -0.000002 -0.403500 -0.888358 -7.549538 0.268375 1.754493 -17.392209 0.000004 0.000000 -0.000002 -0.075203 2.668537 -15.682664 0.268306 1.754284 -17.390008 0.000001 0.000000 -0.000001 0.139707 3.648402 -21.119128 0.386008 2.093196 -20.895212 -0.000002 0.000000 -0.000002 0.965049 5.528503 -27.115798 0.268343 1.754403 -17.391159 -0.000000 -0.000001 0.000001 0.000002 -0.000001 0.000000 1.183843 15.329451 14.738215 13.092799 27.395054 58.812403 -0.000001 6.742081 -0.000012 -19.660583 -0.341185 6.915507 -1.679594 -0.157809 -4.200697 12.690941 -29.718536 -16.097900 -0.000000 0.000001 0.000000 -0.386699 1.237672 6.713448 0.213148 -1.394194 17.383506 0.000000 -0.000001 -0.000002 -0.125501 -2.235938 14.890536 0.212969 -1.393649 17.376425 -0.000000 -0.000001 0.000001 0.040347 -3.096612 20.328222 0.306298 -1.662674 20.874894 0.000001 -0.000001 -0.000005 0.807956 -4.904110 26.339055 0.212952 -1.393554 17.375194 -0.000000 -0.000000 0.000001 0.000004 -0.000001 0.000000 -0.000000 0.000000 -0.000000 0.000000 0.000000 -0.000000 -0.000000 0.000000 -0.000000 -0.000000 0.000000 -0.000000 -0.000000 0.000000 -0.000000 0.000000 0.000000 -0.000000 -0.000000 0.000000 -0.000000 -0.000000 0.000000 -0.000000 -0.000000 0.000000 -0.000000 0.000000 0.000000 -0.000000 0.000000 0.000000 -0.000000 0.000000 0.000000 -0.000000 0.000000 0.000000 -0.000000 
-0.221020 70.905464 1.310003 -3.747872 -5.217421 -3.399855 -0.000000 -0.000000 -0.000000 -8.883222 15.045375 9.757648 13.164102 2.050496 4.255891 -1.479069 0.716559 -7.544084 0.000000 -0.000001 0.000000 -0.000000 0.000002 -0.000000 3.773791 -10.295767 4.115940 6.348566 -9.779511 -3.264475 -5.859417 -1.655705 3.147799 -0.000000 0.000000 0.000000 -0.000000 -0.000002 -0.000000 3.322428 1.509502 2.425447 1.187750 0.293760 1.525121 1.153386 0.335161 1.513962 5.882780 -0.366287 0.432259 -6.794797 0.863300 -0.175530 0.000000 0.000000 -0.000000 0.000000 0.000000 -0.000000 0.000000 0.000000 -0.000000 0.000000 0.000000 -0.000000 -0.000000 0.000000 -0.000000 0.000000 0.000000 -0.000000 -0.000000 0.000000 -0.000000 0.000000 0.000000 -0.000000 0.000000 0.000000 -0.000000 1.034698 -17.345412 -12.363816 3.876068 -19.949811 -69.734620 -0.000007 -1.401631 0.000015 -32.999168 -1.401804 -6.138531 -0.684467 2.132749 4.811709 11.858363 25.382503 17.023960 0.000001 0.000001 -0.000001 -0.402446 -0.890420 -7.530960 0.267801 1.752657 -17.373372 0.000001 0.000001 -0.000000 -0.075304 2.666574 -15.664030 0.267735 1.752461 -17.371270 -0.000001 -0.000000 -0.000001 0.139284 3.646509 -21.100433 0.385327 2.091406 -20.876483 -0.000002 -0.000000 -0.000001 0.964007 5.526880 -27.097020 0.267771 1.752573 -17.372438 0.000001 -0.000000 0.000001 0.000003 -0.000000 -0.000000 1.174927 15.330119 14.771946 13.016957 27.196599 58.868929 0.000002 6.886431 -0.000019 -19.053441 -0.135726 7.061501 -1.680854 -0.140258 -4.197280 12.670598 -29.576539 -16.062597 -0.000001 -0.000001 -0.000001 -0.381643 1.263659 6.602308 0.211408 -1.388618 17.311768 0.000002 -0.000001 -0.000002 -0.125391 -2.225376 14.765457 0.211211 -1.388000 17.303704 0.000000 0.000000 -0.000001 0.050930 -3.118554 20.167344 0.303763 -1.656032 20.787447 0.000002 0.000002 0.000004 0.828872 -4.950430 26.177345 0.211170 -1.387905 17.302438 -0.000000 -0.000001 -0.000003 0.000002 -0.000000 0.000000 0.000000 0.000000 -0.000000 0.000000 0.000000 -0.000000 0.000000 0.000000 -0.000000 0.000000 0.000000 -0.000000 0.000000 0.000000 -0.000000 0.000000 0.000000 -0.000000 0.000000 0.000000 -0.000000 0.000000 0.000000 -0.000000 0.000000 0.000000 -0.000000 0.000000 0.000000 -0.000000 -0.000000 -0.000000 -0.000000 -0.000000 -0.000000 -0.000000 -0.000000 -0.000000 -0.000000 
